{
  "accessors": [
    {
      "bufferView": 2,
      "componentType": 5126,
      "count": 28735,
      "max": [
        11.110098838806152,
        9.0081853866577148,
        27.280376434326172
      ],
      "min": [
        -9.4972858428955078,
        -10.296023368835449,
        -0.48056411743164062
      ],
      "type": "VEC3"
    },
    {
      "bufferView": 2,
      "byteOffset": 344820,
      "componentType": 5126,
      "count": 28735,
      "max": [
        0.99985873699188232,
        0.99979352951049805,
        0.99996733665466309
      ],
      "min": [
        -0.99946987628936768,
        -0.99991101026535034,
        -0.99980378150939941
      ],
      "type": "VEC3"
    },
    {
      "bufferView": 3,
      "componentType": 5126,
      "count": 28735,
      "max": [
        0.99995023012161255,
        0.99998170137405396,
        0.99999958276748657,
        1
      ],
      "min": [
        -0.99999958276748657,
        -0.99999672174453735,
        -0.99984335899353027,
        -1
      ],
      "type": "VEC4"
    },
    {
      "bufferView": 3,
      "byteOffset": 459760,
      "componentType": 5126,
      "count": 28735,
      "max": [
        1,
        1,
        1,
        1
      ],
      "min": [
        1,
        1,
        1,
        0
      ],
      "type": "VEC4"
    },
    {
      "bufferView": 1,
      "componentType": 5126,
      "count": 28735,
      "max": [
        0.99872434139251709,
        0.99784743785858154
      ],
      "min": [
        0.0010035013547167182,
        0.0011684269411489367
      ],
      "type": "VEC2"
    },
    {
      "bufferView": 0,
      "componentType": 5125,
      "count": 145824,
      "max": [
        28734
      ],
      "min": [
        0
      ],
      "type": "SCALAR"
    }
  ],
  "asset": {
    "extras": {
      "author": "3dhdscan (https://sketchfab.com/3dhdscan)",
      "license": "CC-BY-4.0 (http://creativecommons.org/licenses/by/4.0/)",
      "source": "https://sketchfab.com/models/fb6e253b75db40c3b38e3977ee60bc5c",
      "title": "Stone sculpture I."
    },
    "generator": "Sketchfab-3.19.4",
    "version": "2.0"
  },
  "bufferViews": [
    {
      "buffer": 0,
      "byteLength": 583296,
      "byteOffset": 0,
      "name": "floatBufferViews",
      "target": 34963
    },
    {
      "buffer": 0,
      "byteLength": 229880,
      "byteOffset": 583296,
      "byteStride": 8,
      "name": "floatBufferViews",
      "target": 34962
    },
    {
      "buffer": 0,
      "byteLength": 689640,
      "byteOffset": 813176,
      "byteStride": 12,
      "name": "floatBufferViews",
      "target": 34962
    },
    {
      "buffer": 0,
      "byteLength": 919520,
      "byteOffset": 1502816,
      "byteStride": 16,
      "name": "floatBufferViews",
      "target": 34962
    }
  ],
  "buffers": [
    {
      "byteLength": 2422336,
      "uri": "scene.bin"
    }
  ],
  "images": [
    {
      "uri": "textures/plastika_houba_metallicRoughness.png"
    },
    {
      "uri": "textures/plastika_houba_normal.jpeg"
    },
    {
      "uri": "textures/plastika_houba_baseColor.jpeg"
    }
  ],
  "materials": [
    {
      "doubleSided": true,
      "emissiveFactor": [
        0,
        0,
        0
      ],
      "name": "plastika_houba",
      "normalTexture": {
        "index": 1,
        "scale": 1,
        "texCoord": 0
      },
      "occlusionTexture": {
        "index": 0,
        "strength": 1,
        "texCoord": 0
      },
      "pbrMetallicRoughness": {
        "baseColorFactor": [
          1,
          1,
          1,
          1
        ],
        "baseColorTexture": {
          "index": 2,
          "texCoord": 0
        },
        "metallicFactor": 0,
        "roughnessFactor": 0.88107928850000006
      }
    }
  ],
  "meshes": [
    {
      "name": "plastika_houba_plastika_houba_0",
      "primitives": [
        {
          "attributes": {
            "COLOR_0": 3,
            "NORMAL": 1,
            "POSITION": 0,
            "TANGENT": 2,
            "TEXCOORD_0": 4
          },
          "indices": 5,
          "material": 0,
          "mode": 4
        }
      ]
    }
  ],
  "nodes": [
    {
      "children": [
        1
      ],
      "name": "RootNode (gltf orientation matrix)",
      "rotation": [
        -0.70710678118654746,
        -0,
        -0,
        0.70710678118654757
      ]
    },
    {
      "children": [
        2
      ],
      "matrix": [
        0,
        -1,
        0,
        0,
        -1,
        0,
        0,
        0,
        0,
        0,
        -1,
        0,
        16.248935699462891,
        16.248935699462891,
        -2679.981689453125,
        1
      ],
      "name": "RootNode (model correction matrix)"
    },
    {
      "children": [
        3
      ],
      "matrix": [
        1,
        0,
        0,
        0,
        0,
        -1,
        0,
        0,
        0,
        0,
        -1,
        0,
        0,
        0,
        0,
        1
      ],
      "name": "plastika_houba.FBX"
    },
    {
      "children": [
        4
      ],
      "name": "RootNode"
    },
    {
      "children": [
        5
      ],
      "matrix": [
        -4.3711388730827139e-06,
        -99.999999999999901,
        0,
        0,
        99.999999999999901,
        -4.3711388730827139e-06,
        0,
        0,
        0,
        0,
        100,
        0,
        0,
        0,
        0,
        1
      ],
      "name": "plastika_houba"
    },
    {
      "mesh": 0,
      "name": "plastika_houba_plastika_houba_0"
    }
  ],
  "samplers": [
    {
      "magFilter": 9729,
      "minFilter": 9987,
      "wrapS": 10497,
      "wrapT": 10497
    }
  ],
  "scene": 0,
  "scenes": [
    {
      "name": "OSG_Scene",
      "nodes": [
        0
      ]
    }
  ],
  "textures": [
    {
      "sampler": 0,
      "source": 0
    },
    {
      "sampler": 0,
      "source": 1
    },
    {
      "sampler": 0,
      "source": 2
    }
  ]
}

